<?xml version="1.0" encoding="UTF-8" standalone="no"?>
<!-- Created with Inkscape (http://www.inkscape.org/) -->

<svg
   xmlns:dc="http://purl.org/dc/elements/1.1/"
   xmlns:cc="http://creativecommons.org/ns#"
   xmlns:rdf="http://www.w3.org/1999/02/22-rdf-syntax-ns#"
   xmlns:svg="http://www.w3.org/2000/svg"
   xmlns="http://www.w3.org/2000/svg"
   xmlns:sodipodi="http://sodipodi.sourceforge.net/DTD/sodipodi-0.dtd"
   xmlns:inkscape="http://www.inkscape.org/namespaces/inkscape"
   width="90cm"
   height="200cm"
   viewBox="0 0 3188.9764 7086.6141"
   id="svg9487"
   version="1.1"
   inkscape:version="0.91 r13725"
   sodipodi:docname="PendonChingonFinalSiEs.svg">
  <defs
     id="defs9489" />
  <sodipodi:namedview
     id="base"
     pagecolor="#ffffff"
     bordercolor="#666666"
     borderopacity="1.0"
     inkscape:pageopacity="0.0"
     inkscape:pageshadow="2"
     inkscape:zoom="0.04375"
     inkscape:cx="1359.8398"
     inkscape:cy="1972.6731"
     inkscape:document-units="px"
     inkscape:current-layer="layer1"
     showgrid="false"
     units="cm"
     inkscape:window-width="1440"
     inkscape:window-height="850"
     inkscape:window-x="0"
     inkscape:window-y="0"
     inkscape:window-maximized="1" />
  <metadata
     id="metadata9492">
    <rdf:RDF>
      <cc:Work
         rdf:about="">
        <dc:format>image/svg+xml</dc:format>
        <dc:type
           rdf:resource="http://purl.org/dc/dcmitype/StillImage" />
        <dc:title></dc:title>
      </cc:Work>
    </rdf:RDF>
  </metadata>
  <g
     inkscape:label="Capa 1"
     inkscape:groupmode="layer"
     id="layer1"
     transform="translate(0,6034.252)">
    <polygon
       transform="matrix(1.5176921,0,0,1.593461,-1630.7852,-6748.4664)"
       style="clip-rule:evenodd;fill:#404141;fill-rule:evenodd;image-rendering:optimizeQuality;shape-rendering:geometricPrecision;text-rendering:geometricPrecision"
       class="fil36"
       points="3174,4893 3174,451 1076,451 1076,4893 "
       id="polygon2481-7" />
    <path
       class="fil40"
       d="m 2.2507847,-1359.381 0,-4670.4333 3184.1181153,0 0,2430.0275 -467.4491,-207.1492 279.2551,-168.9075 -708.762,0 L 0.7338847,-2600.6877 317.83714,-1985.9813 5.1995847,-1492.2727 Z"
       id="path4115-9"
       inkscape:connector-curvature="0"
       style="clip-rule:evenodd;fill:#767779;fill-rule:nonzero;image-rendering:optimizeQuality;shape-rendering:geometricPrecision;text-rendering:geometricPrecision"
       sodipodi:nodetypes="ccccccccccc" />
    <path
       inkscape:connector-curvature="0"
       style="clip-rule:evenodd;fill:#000000;fill-rule:evenodd;image-rendering:optimizeQuality;shape-rendering:geometricPrecision;text-rendering:geometricPrecision"
       d="m 2383.8523,-5601.6639 -72.0539,76.9158 c -136.6485,138.8787 -310.2103,220.9433 -481.5596,284.9946 -38.4567,5.0073 -79.3511,-44.0483 -112.6962,0.2272 -41.6096,15.7148 -110.7038,11.749 -114.3322,79.2706 -91.3008,66.5008 -209.7121,79.166 -298.4329,154.0049 17.7742,21.9327 60.9025,-14.4408 84.3137,-16.8791 77.8484,-23.4958 151.5967,-84.2014 232.9687,-83.8734 32.215,111.4655 29.6903,238.4742 35.3839,356.5586 -2.3509,77.5005 -77.8503,120.407 -116.0143,175.6619 -43.4638,58.4051 -89.3688,106.8867 -159.0804,75.9042 -69.2168,-20.1276 -140.7596,66.529 -201.1476,0.9949 -45.5396,-38.2865 -80.2846,-120.0252 -28.5176,-171.2862 61.05,-91.0716 151.4956,-210.547 105.2253,-332.5117 -93.3412,-99.5135 -223.6666,-142.731 -345.24121,-176.3436 -135.05008,-8.5747 -233.56664,-139.8213 -368.95556,-152.0881 -143.99577,-23.0897 -301.39061,-24.5688 -435.21995,47.761 -33.350455,21.3346 0.84986,58.8613 28.33642,51.3356 136.85267,14.1573 276.95927,-3.832 412.21868,11.281 84.04586,37.0682 127.23088,47.7628 161.86943,108.1125 -9.53119,44.3461 -70.52078,-6.3764 -95.90663,1.1679 -159.42636,-38.685 -341.13543,-36.6901 -472.1047,90.3433 -54.538435,54.9157 -129.835495,108.4515 -147.1254953,193.7443 28.9663003,39.3856 80.7209203,-18.3452 111.0445053,-32.3626 96.4443,-67.844 188.17617,-162.1102 308.58518,-157.5632 40.08012,3.0793 104.04333,-17.7639 130.78827,24.4289 -0.26435,62.7326 -78.08087,39.2873 -112.24036,53.7427 -189.58491,24.0564 -303.80891,235.9744 -341.179765,433.0364 -0.24131,19.3159 -22.50096,78.0728 1.99956,80.9267 88.023725,-138.3814 155.650765,-325.2521 306.553665,-386.7755 51.91966,-12.0674 134.81583,-32.0815 168.27982,28.5273 -7.38973,52.6116 -74.23255,62.1026 -105.74132,91.0564 -151.93905,109.9697 -304.24004,280.8965 -300.58333,503.0134 4.39835,50.8514 49.60251,-11.2888 57.50674,-28.7879 60.70219,-110.6478 102.28155,-251.084 218.86173,-301.0204 67.13911,-28.9948 145.95275,-80.5039 218.19459,-53.411 4.7514,31.219 -53.12792,32.7019 -69.8271,46.2966 -159.57715,50.1251 -274.09389,223.1881 -284.38447,410.9436 -12.0081,38.5513 22.28091,73.7045 50.3388,43.8899 69.84661,-118.4471 106.96198,-278.7354 230.34814,-343.3567 140.33018,-77.659 320.38747,-116.3982 463.14826,-27.3423 150.4416,127.2938 273.4533,308.3394 332.9667,512.9869 13.4206,124.1644 25.3985,258.2239 -10.0473,378.6869 -43.3164,146.4161 -156.5148,252.4346 -192.1152,400.9702 27.7954,70.856 28.1202,148.8206 15.1379,225.2185 29.7382,-66.0032 -133.5347,24.472 -289.6716,-27.0965 -122.21696,225.3267 373.3112,-129.1325 554.0834,-188.6086 125.2528,-32.7298 160.9807,-34.6614 209.0273,-151.1045 78.2883,-224.8703 85.7241,-479.2942 45.4294,-715.1031 -29.0906,-143.0906 -84.9366,-277.3884 -145.0035,-404.9116 67.2776,-73.0951 153.3742,-130.673 222.059,-205.6384 40.3958,-46.5836 107.9732,-92.9752 108.9985,-162.1659 -30.4742,-107.9357 -97.9471,-209.1071 -100.3456,-325.0305 14.46,-36.9376 45.9917,-64.3325 47.688,-107.8498 97.8761,-66.2288 216.2874,-86.649 323.661,-128.3203 90.2362,-32.359 186.1765,-40.5014 277.0799,-63.9432 -43.469,-54.0311 -58.1028,-128.8585 -62.5687,-198.6286 z m -673.2648,550.5824 c 55.7929,92.4722 102.4662,199.1484 128.9093,307.7153 -15.0136,48.7576 -71.9259,73.0283 -106.543,89.8196 -12.2938,-129.6634 -23.3936,-261.9794 -27.8681,-391.9725 0.7788,-2.6546 2.5406,-6.4602 5.5018,-5.5624 z"
       id="path3708-2"
       sodipodi:nodetypes="cccccccccccccccccccccccccccccccccccccccccccccccccccccccccccccc" />
    <polygon
       transform="matrix(1.5176921,0,0,1.593461,-1630.7852,-6748.4664)"
       class="fil10"
       points="1076,2872 1076,2604 2584,1741 3051,1741 "
       id="polygon4117-0"
       style="clip-rule:evenodd;fill:#ff6600;fill-rule:evenodd;image-rendering:optimizeQuality;shape-rendering:geometricPrecision;text-rendering:geometricPrecision" />
    <polygon
       transform="matrix(1.5176921,0,0,1.593461,-1630.7852,-6748.4664)"
       class="fil8"
       points="3174,1820 3174,2076 2584,1741 3051,1741 "
       id="polygon4127-2"
       style="clip-rule:evenodd;fill:#d45500;fill-rule:evenodd;image-rendering:optimizeQuality;shape-rendering:geometricPrecision;text-rendering:geometricPrecision" />
    <polygon
       transform="matrix(1.5176921,0,0,1.593461,-1630.7852,-6748.4664)"
       class="fil10"
       points="1076,3081 1076,3319 1484,3095 1484,2843 "
       id="polygon4355-3"
       style="clip-rule:evenodd;fill:#ff6600;fill-rule:evenodd;image-rendering:optimizeQuality;shape-rendering:geometricPrecision;text-rendering:geometricPrecision" />
    <polygon
       transform="matrix(1.5176921,0,0,1.593461,-1630.7852,-6748.4664)"
       class="fil8"
       points="1484,2843 1484,3095 1076,2872 1076,2604 "
       id="polygon4357-7"
       style="clip-rule:evenodd;fill:#d45500;fill-rule:evenodd;image-rendering:optimizeQuality;shape-rendering:geometricPrecision;text-rendering:geometricPrecision" />
    <text
       xml:space="preserve"
       style="font-style:normal;font-weight:normal;font-size:691.21820068px;line-height:125%;font-family:sans-serif;letter-spacing:0px;word-spacing:0px;clip-rule:evenodd;fill:#ffffff;fill-opacity:1;fill-rule:evenodd;stroke:none;stroke-width:1px;stroke-linecap:butt;stroke-linejoin:miter;stroke-opacity:1;image-rendering:optimizeQuality;shape-rendering:geometricPrecision;text-rendering:geometricPrecision"
       x="1409.1606"
       y="-1776.9933"
       id="text7707-5"
       sodipodi:linespacing="125%"
       transform="scale(0.97593549,1.0246579)"><tspan
         sodipodi:role="line"
         id="tspan7709-92"
         x="1409.1606"
         y="-1776.9933">GLUD</tspan></text>
    <text
       xml:space="preserve"
       style="font-style:normal;font-weight:normal;font-size:691.21820068px;line-height:125%;font-family:sans-serif;text-align:end;letter-spacing:0px;word-spacing:0px;text-anchor:end;clip-rule:evenodd;fill:#999999;fill-opacity:1;fill-rule:evenodd;stroke:none;stroke-width:1px;stroke-linecap:butt;stroke-linejoin:miter;stroke-opacity:1;image-rendering:optimizeQuality;shape-rendering:geometricPrecision;text-rendering:geometricPrecision"
       x="3133.6179"
       y="-2736.8501"
       id="text7711-2"
       sodipodi:linespacing="125%"
       transform="scale(0.97593549,1.0246579)"><tspan
         sodipodi:role="line"
         id="tspan7713-8"
         x="3133.6179"
         y="-2736.8501"
         style="font-size:151.20399475px;text-align:end;text-anchor:end;fill:#999999">Piensa Libre</tspan><tspan
         sodipodi:role="line"
         x="3133.6179"
         y="-2547.8452"
         style="font-size:151.20399475px;text-align:end;text-anchor:end;fill:#999999"
         id="tspan7717-9">Vive Libre.</tspan><tspan
         sodipodi:role="line"
         x="3133.6179"
         y="-2358.8401"
         id="tspan7715-7"
         style="font-size:151.20399475px;fill:#999999" /></text>
    <text
       xml:space="preserve"
       style="font-style:normal;font-weight:normal;font-size:691.21820068px;line-height:125%;font-family:sans-serif;text-align:end;letter-spacing:0px;word-spacing:0px;text-anchor:end;clip-rule:evenodd;fill:#999999;fill-opacity:1;fill-rule:evenodd;stroke:none;stroke-width:1px;stroke-linecap:butt;stroke-linejoin:miter;stroke-opacity:1;image-rendering:optimizeQuality;shape-rendering:geometricPrecision;text-rendering:geometricPrecision"
       x="3023.9597"
       y="-1659.0792"
       id="text7711-3-36"
       sodipodi:linespacing="125%"
       transform="scale(0.97593549,1.0246579)"><tspan
         sodipodi:role="line"
         x="3023.9597"
         y="-1659.0792"
         style="font-size:75.60199738px;text-align:end;text-anchor:end;fill:#999999"
         id="tspan7745-1">GRUPO GNU LINUX  UNIVERSIDAD DISTRITAL</tspan><tspan
         sodipodi:role="line"
         x="3023.9597"
         y="-1564.5768"
         id="tspan7715-5-2"
         style="font-size:64.80171204px;fill:#999999" /></text>
    <polygon
       transform="matrix(1.5176921,0,0,1.593461,-1630.7852,-6748.4664)"
       style="clip-rule:evenodd;fill:#343434;fill-rule:evenodd;image-rendering:optimizeQuality;shape-rendering:geometricPrecision;text-rendering:geometricPrecision"
       class="fil37"
       points="3174,4893 3174,4670 1076,4670 1076,4893 "
       id="polygon3997-9" />
    <path
       class="fil12"
       d="m 118.97469,823.70197 c -7.26908,0 -14.53813,9.5656 -14.53813,19.131 0,9.5656 7.26905,19.1312 14.53813,19.1312 7.26906,0 14.53817,-9.5656 14.53817,-19.1312 0,-9.5654 -7.26911,-19.131 -14.53817,-19.131 z m 34.52855,45.4361 0,0 -25.44087,55.0015 0,0 c -1.81862,4.7837 -5.45224,7.1756 -9.08768,7.1756 -3.63365,0 -7.26908,-2.3919 -9.08589,-7.1756 l 0,0 -25.440865,-55.0015 c -10.90449,-23.913 -3.63542,-55.0018 14.538155,-69.3491 18.17177,-14.3493 41.79582,-4.7837 52.70031,19.1293 7.26908,16.7412 7.26908,35.8722 0,50.2198 z"
       id="path3999-3"
       inkscape:connector-curvature="0"
       style="clip-rule:evenodd;fill:#d45500;fill-rule:evenodd;image-rendering:optimizeQuality;shape-rendering:geometricPrecision;text-rendering:geometricPrecision" />
    <path
       class="fil12"
       d="m 2295.6156,863.67437 -9.0877,13.6767 c -5.4503,0 -10.9027,2.7366 -16.3548,8.2058 -7.2693,10.9421 -7.2693,30.0921 0,41.0323 7.2689,10.9421 19.9902,10.9421 27.2594,0 3.6336,-5.4712 5.4522,-16.4114 5.4522,-24.619 l 9.0859,-13.6767 c 5.4522,16.4133 1.8167,35.5611 -7.2689,49.2378 -12.7215,19.1482 -30.8935,19.1482 -43.6145,0 -12.7213,-19.1479 -12.7213,-46.5032 0,-65.6511 9.0859,-13.677 21.8072,-16.4134 32.7099,-10.9424 z m -9.0877,21.8825 27.2594,-41.0305 c 3.6355,-5.471 7.2692,-5.471 10.9045,0 3.6338,5.4694 3.6338,10.9404 0,16.4114 l -27.2593,41.0324 c -3.6354,5.4711 -7.2692,5.4711 -10.9046,0 -3.6335,-5.4712 -3.6335,-10.9421 0,-16.4133 z m 29.0764,-2.7346 9.0875,-13.6768 c 5.4506,0 10.903,-2.7365 16.3552,-8.2077 7.2691,-10.942 7.2691,-30.0899 0,-41.0323 -7.2691,-10.9402 -19.9905,-10.9402 -27.2597,0 -3.6335,5.4712 -5.452,16.4133 -5.452,24.6209 l -9.0862,13.6768 c -5.452,-16.4132 -1.8166,-35.5611 7.2693,-49.2379 12.7212,-19.1497 30.893,-19.1497 43.6144,0 10.9043,19.1478 10.9043,46.5015 0,65.6514 -9.0858,13.6768 -21.8072,16.4114 -32.71,10.9402 z"
       id="path4069-1"
       inkscape:connector-curvature="0"
       style="clip-rule:evenodd;fill:#d45500;fill-rule:evenodd;image-rendering:optimizeQuality;shape-rendering:geometricPrecision;text-rendering:geometricPrecision" />
    <text
       xml:space="preserve"
       style="font-style:normal;font-weight:normal;font-size:691.21820068px;line-height:125%;font-family:sans-serif;text-align:start;letter-spacing:0px;word-spacing:0px;text-anchor:start;clip-rule:evenodd;fill:#999999;fill-opacity:1;fill-rule:evenodd;stroke:none;stroke-width:1px;stroke-linecap:butt;stroke-linejoin:miter;stroke-opacity:1;image-rendering:optimizeQuality;shape-rendering:geometricPrecision;text-rendering:geometricPrecision"
       x="791.24213"
       y="-885.42493"
       id="text7711-3-3-9"
       sodipodi:linespacing="125%"
       transform="scale(0.97593549,1.0246579)"><tspan
         sodipodi:role="line"
         x="791.24213"
         y="-885.42493"
         style="font-size:75.60199738px;text-align:start;text-anchor:start;fill:#b3b3b3"
         id="tspan7894-4"> Promover el   uso  y  desarrollo  de  tecnología,  cultura y  ciencia  libre,</tspan><tspan
         sodipodi:role="line"
         x="791.24213"
         y="-790.92242"
         style="font-size:75.60199738px;text-align:start;text-anchor:start;fill:#b3b3b3"
         id="tspan7960-7">con el fin de generar y compartir saberes que permitan  su   integración</tspan><tspan
         sodipodi:role="line"
         x="791.24213"
         y="-696.41992"
         style="font-size:75.60199738px;text-align:start;text-anchor:start;fill:#b3b3b3"
         id="tspan7884-8">al  desarrollo  social    y  económico   de   la   ciudad-región   y   el   país. </tspan><tspan
         sodipodi:role="line"
         x="791.24213"
         y="-601.91742"
         id="tspan7715-5-6-4"
         style="font-size:75.60199738px;text-align:start;text-anchor:start;fill:#b3b3b3" /></text>
    <text
       xml:space="preserve"
       style="font-style:normal;font-weight:normal;font-size:691.21820068px;line-height:125%;font-family:sans-serif;text-align:start;letter-spacing:0px;word-spacing:0px;text-anchor:start;clip-rule:evenodd;fill:#000000;fill-opacity:1;fill-rule:evenodd;stroke:none;stroke-width:1px;stroke-linecap:butt;stroke-linejoin:miter;stroke-opacity:1;image-rendering:optimizeQuality;shape-rendering:geometricPrecision;text-rendering:geometricPrecision"
       x="784.72638"
       y="-133.68515"
       id="text7934-5"
       sodipodi:linespacing="125%"
       transform="scale(0.97593549,1.0246579)"><tspan
         sodipodi:role="line"
         x="784.72638"
         y="-133.68515"
         id="tspan7938-0"
         style="font-size:75.60199738px;text-align:start;text-anchor:start;fill:#b3b3b3">GLUD  es   un   grupo   universitario  líder  en  la  apropiación,  desarrollo, </tspan><tspan
         sodipodi:role="line"
         x="784.72638"
         y="-39.182655"
         id="tspan7940-3"
         style="font-size:75.60199738px;text-align:start;text-anchor:start;fill:#b3b3b3">uso  y  difusión  de  tecnología,  cultura  y  ciencia  libre,  destacándonos </tspan><tspan
         sodipodi:role="line"
         x="784.72638"
         y="55.319843"
         style="font-size:75.60199738px;text-align:start;text-anchor:start;fill:#b3b3b3"
         id="tspan7970-6">por  nuestro  valor  humano,   los   proyectos    académicos   y   sociales,</tspan><tspan
         sodipodi:role="line"
         x="784.72638"
         y="149.82234"
         id="tspan7942-1"
         style="font-size:75.60199738px;text-align:start;text-anchor:start;fill:#b3b3b3">los  conocimientos  técnicos  y  el  desarrollo,  mejora  y  distribución de </tspan><tspan
         sodipodi:role="line"
         x="784.72638"
         y="244.32483"
         id="tspan7944-0"
         style="font-size:75.60199738px;text-align:start;text-anchor:start;fill:#b3b3b3">tecnología  libre  de  calidad  que  se  amolde a las necesidades del país.</tspan><tspan
         sodipodi:role="line"
         x="784.72638"
         y="338.82733"
         id="tspan7946-6"
         style="text-align:start;text-anchor:start;fill:#b3b3b3" /></text>
    <text
       xml:space="preserve"
       style="font-style:normal;font-weight:normal;font-size:691.21820068px;line-height:125%;font-family:sans-serif;letter-spacing:0px;word-spacing:0px;clip-rule:evenodd;fill:#ffffff;fill-opacity:1;fill-rule:evenodd;stroke:none;stroke-width:1px;stroke-linecap:butt;stroke-linejoin:miter;stroke-opacity:1;image-rendering:optimizeQuality;shape-rendering:geometricPrecision;text-rendering:geometricPrecision"
       x="796.10309"
       y="-995.92371"
       id="text7707-2-3"
       sodipodi:linespacing="125%"
       transform="scale(0.97593549,1.0246579)"><tspan
         sodipodi:role="line"
         id="tspan7709-9-20"
         x="796.10309"
         y="-995.92371"
         style="font-size:194.40515137px;fill:#d45500">Misión</tspan></text>
    <text
       xml:space="preserve"
       style="font-style:normal;font-weight:normal;font-size:691.21820068px;line-height:125%;font-family:sans-serif;letter-spacing:0px;word-spacing:0px;clip-rule:evenodd;fill:#ffffff;fill-opacity:1;fill-rule:evenodd;stroke:none;stroke-width:1px;stroke-linecap:butt;stroke-linejoin:miter;stroke-opacity:1;image-rendering:optimizeQuality;shape-rendering:geometricPrecision;text-rendering:geometricPrecision"
       x="777.72791"
       y="-236.17343"
       id="text7707-2-1-6"
       sodipodi:linespacing="125%"
       transform="scale(0.97593549,1.0246579)"><tspan
         sodipodi:role="line"
         id="tspan7709-9-2-1"
         x="777.72791"
         y="-236.17343"
         style="font-size:194.40515137px;fill:#d45500">Visión</tspan></text>
    <path
       class="fil19"
       d="m 439.55376,-769.96629 -16.69564,0 0,-194.402 -51.60208,6.3747 0,-12.7491 68.29772,-12.7475 0,213.5239 z m -16.69564,-272.48231 c -88.02551,0 -159.35716,74.89301 -159.35716,167.31491 0,92.4201 71.33165,167.31296 159.35716,167.31296 88.02727,0 159.35715,-74.89286 159.35715,-167.31296 0,-92.4219 -71.32988,-167.31491 -159.35715,-167.31491 z"
       id="path1425-5"
       inkscape:connector-curvature="0"
       style="clip-rule:evenodd;fill:#96989b;fill-rule:nonzero;image-rendering:optimizeQuality;shape-rendering:geometricPrecision;text-rendering:geometricPrecision" />
    <path
       class="fil19"
       d="m 497.2255,81.325574 -124.45071,0 0,-12.7492 65.26021,-78.0783996 c 12.14113,-14.3415004 21.24832,-27.0888004 25.80102,-36.6509004 4.55272,-9.5598 7.58844,-19.1217 7.58844,-28.6818 0,-12.7473 -3.03572,-23.9019 -10.62416,-31.869204 -7.58843,-7.967 -16.69385,-11.1545 -30.35374,-11.1545 -15.17689,0 -27.31802,4.78 -34.90646,12.7474 -7.58843,9.561904 -12.14114,20.716504 -12.14114,35.056404 l -15.17686,0 0,-1.5927 c 0,-17.5294 4.55269,-31.869204 16.69385,-44.616204 10.62415,-12.7493 27.318,-17.5294 45.53061,-17.5294 16.6956,0 31.87249,4.7801 40.9779,15.9345 10.62419,11.1545 15.17688,23.901904 15.17688,41.431104 0,11.1527 -3.03574,23.9017 -10.62416,35.0544 -7.58844,12.7491 -16.69386,25.4966 -28.83502,39.8382004 l -56.15475,65.3309996 0,0 103.20236,0 0,14.3419 z M 422.85812,-191.15663 c -88.02551,0 -159.35716,74.8931 -159.35716,167.313104 0,92.4199 71.33165,167.312796 159.35716,167.312796 88.02727,0 159.35715,-74.892896 159.35715,-167.312796 0,-92.420004 -71.32988,-167.313104 -159.35715,-167.313104 z"
       id="path2203-5"
       inkscape:connector-curvature="0"
       style="clip-rule:evenodd;fill:#96989b;fill-rule:nonzero;image-rendering:optimizeQuality;shape-rendering:geometricPrecision;text-rendering:geometricPrecision" />
    <text
       xml:space="preserve"
       style="font-style:normal;font-weight:normal;font-size:691.21820068px;line-height:125%;font-family:sans-serif;text-align:start;letter-spacing:0px;word-spacing:0px;text-anchor:start;clip-rule:evenodd;fill:#999999;fill-opacity:1;fill-rule:evenodd;stroke:none;stroke-width:1px;stroke-linecap:butt;stroke-linejoin:miter;stroke-opacity:1;image-rendering:optimizeQuality;shape-rendering:geometricPrecision;text-rendering:geometricPrecision"
       x="2470.8113"
       y="829.41016"
       id="text7711-3-7-4"
       sodipodi:linespacing="125%"
       transform="scale(0.97593549,1.0246579)"><tspan
         sodipodi:role="line"
         x="2470.8113"
         y="829.41016"
         style="font-size:64.80171204px;text-align:start;text-anchor:start;fill:#999999"
         id="tspan7745-0-7">www.glud.org</tspan><tspan
         sodipodi:role="line"
         x="2470.8113"
         y="910.41229"
         style="font-size:64.80171204px;text-align:start;text-anchor:start;fill:#999999"
         id="tspan8045-6">www.semanalinuxud.com</tspan><tspan
         sodipodi:role="line"
         x="2470.8113"
         y="991.41443"
         id="tspan7715-5-9-5"
         style="font-size:64.80171204px;text-align:start;text-anchor:start;fill:#999999" /></text>
    <path
       inkscape:connector-curvature="0"
       style="clip-rule:evenodd;fill:#d45500;fill-rule:evenodd;image-rendering:optimizeQuality;shape-rendering:geometricPrecision;text-rendering:geometricPrecision"
       class="fil11"
       d="m 1327.5871,868.01477 c 0,43.0237 -33.3895,78.08 -74.3674,78.08 -40.9778,0 -74.3673,-35.0563 -74.3673,-78.08 0,-43.0237 33.3895,-78.0783 74.3673,-78.0783 40.9779,0 74.3674,35.0546 74.3674,78.0783 z"
       id="path555-6" />
    <path
       inkscape:connector-curvature="0"
       style="clip-rule:evenodd;fill:#333333;fill-rule:evenodd;image-rendering:optimizeQuality;shape-rendering:geometricPrecision;text-rendering:geometricPrecision"
       class="fil12"
       d="m 1283.5734,883.94927 -15.177,-15.9345 15.177,-15.9347 0,31.8692 z m -56.1548,6.3746 15.1768,-15.9347 7.5886,9.5601 6.0715,0 7.5884,-9.5601 15.1769,15.9347 -51.6022,0 z m -4.5526,-6.3746 0,-31.8692 15.1768,15.9347 -15.1768,15.9345 z m 56.1548,-38.242 -18.2126,19.12 -7.5885,9.5619 -7.5886,-9.5619 -18.2125,-19.12 51.6022,0 z m 1.5169,-7.967 -54.636,0 c -6.0715,0 -12.1412,4.7799 -12.1412,12.7472 l 0,36.6491 c 0,6.3745 4.5527,12.7472 12.1412,12.7472 l 54.636,0 c 6.0715,0 12.1429,-4.78 12.1429,-12.7472 l 0,-36.6491 c 0,-6.3746 -4.5545,-12.7472 -12.1429,-12.7472 z"
       id="path557-9" />
    <text
       xml:space="preserve"
       style="font-style:normal;font-weight:normal;font-size:691.21820068px;line-height:125%;font-family:sans-serif;text-align:start;letter-spacing:0px;word-spacing:0px;text-anchor:start;clip-rule:evenodd;fill:#999999;fill-opacity:1;fill-rule:evenodd;stroke:none;stroke-width:1px;stroke-linecap:butt;stroke-linejoin:miter;stroke-opacity:1;image-rendering:optimizeQuality;shape-rendering:geometricPrecision;text-rendering:geometricPrecision"
       x="1408.2374"
       y="861.38135"
       id="text7711-3-7-3-3"
       sodipodi:linespacing="125%"
       transform="scale(0.97593549,1.0246579)"><tspan
         sodipodi:role="line"
         x="1408.2374"
         y="861.38135"
         style="font-size:64.80171204px;text-align:start;text-anchor:start;fill:#999999"
         id="tspan7745-0-6-7">glud.udistrital.edu.co</tspan><tspan
         sodipodi:role="line"
         x="1408.2374"
         y="942.38348"
         style="font-size:75.60199738px;text-align:start;text-anchor:start;fill:#999999"
         id="tspan8045-0-4" /><tspan
         sodipodi:role="line"
         x="1408.2374"
         y="1023.3856"
         id="tspan7715-5-9-6-5"
         style="font-size:64.80171204px;text-align:start;text-anchor:start;fill:#999999" /></text>
    <text
       xml:space="preserve"
       style="font-style:normal;font-weight:normal;font-size:691.21820068px;line-height:125%;font-family:sans-serif;text-align:start;letter-spacing:0px;word-spacing:0px;text-anchor:start;clip-rule:evenodd;fill:#999999;fill-opacity:1;fill-rule:evenodd;stroke:none;stroke-width:1px;stroke-linecap:butt;stroke-linejoin:miter;stroke-opacity:1;image-rendering:optimizeQuality;shape-rendering:geometricPrecision;text-rendering:geometricPrecision"
       x="212.86157"
       y="831.10107"
       id="text7711-3-7-3-2-2"
       sodipodi:linespacing="125%"
       transform="scale(0.97593549,1.0246579)"><tspan
         sodipodi:role="line"
         x="212.86157"
         y="831.10107"
         style="font-size:64.80171204px;text-align:start;text-anchor:start;fill:#999999"
         id="tspan8045-0-1-5">Facultad   Ingenieria </tspan><tspan
         sodipodi:role="line"
         x="212.86157"
         y="912.10321"
         style="font-size:64.80171204px;text-align:start;text-anchor:start;fill:#999999"
         id="tspan8124-4">Universidad Distrital</tspan><tspan
         sodipodi:role="line"
         x="212.86157"
         y="993.10535"
         id="tspan7715-5-9-6-8-7"
         style="font-size:64.80171204px;text-align:start;text-anchor:start;fill:#999999" /></text>
  </g>
</svg>
